<svg xmlns="http://www.w3.org/2000/svg" width="20" height="20" viewBox="0 0 20 20">
<path fill="#009312" d="M7.701 10.271l3.667-3.178c.405.617 1.366 1.274 1.417 1.866l-3.552 3.078-1.531-1.767zm.497 1.818l5.218-1.019c.092.622.711 1.556.485 1.991l-5.074.991-.629-1.963zm3.781-6.913l.875-3.294 1.578.424-.875 3.294-1.578-.424zm-6.55 6.267l1.167-5.11c.596.316 1.676.364 1.956.855l-1.13 4.951-1.992-.695zM3.353 7.026l.814-3.693c.518.283 1.896.013 1.741.73L5.17 7.41l-1.817-.384zm8.679 7.76l3.868 1.298c-.276.505-.298 1.52-.73 1.713l-3.728-1.251.591-1.76zM4.978 13.9l5.089 1.121c-.268.726-.218 1.949-.675 2.38l-4.945-1.089.531-2.411zm-3.208-.732l2.021-4.176c.589.389 1.732.58 1.989 1.087l-1.956 4.043-2.053-.954zm-.279 1.178l4.929-1.911c.189.782.933 1.81.767 2.435l-4.775 1.852-.921-2.376zm13.086-6.181h4.294v2.07h-4.294v-2.07z"/>
</svg>